<svg xmlns="http://www.w3.org/2000/svg" version="1.1" xmlns:xlink="http://www.w3.org/1999/xlink" xmlns:svgjs="http://svgjs.dev/svgjs" width="1440" height="560" preserveAspectRatio="none" viewBox="0 0 1440 560"><g mask="url(&quot;#SvgjsMask1009&quot;)" fill="none"><rect width="1440" height="560" x="0" y="0" fill="#0e2a47"></rect><path d="M30 560L590 0L921.5 0L361.5 560z" fill="url(&quot;#SvgjsLinearGradient1010&quot;)"></path><path d="M357.8 560L917.8 0L1304.8 0L744.8 560z" fill="url(&quot;#SvgjsLinearGradient1010&quot;)"></path><path d="M688.6 560L1248.6 0L1494.6 0L934.6 560z" fill="url(&quot;#SvgjsLinearGradient1010&quot;)"></path><path d="M1388 560L828 0L504 0L1064 560z" fill="url(&quot;#SvgjsLinearGradient1011&quot;)"></path><path d="M1060.2 560L500.20000000000005 0L47.200000000000045 0L607.2 560z" fill="url(&quot;#SvgjsLinearGradient1011&quot;)"></path><path d="M783.4 560L223.39999999999998 0L38.89999999999998 0L598.9 560z" fill="url(&quot;#SvgjsLinearGradient1011&quot;)"></path><path d="M957.8189136886143 560L1440 77.81891368861432L1440 560z" fill="url(&quot;#SvgjsLinearGradient1010&quot;)"></path><path d="M0 560L482.1810863113857 560L 0 77.81891368861432z" fill="url(&quot;#SvgjsLinearGradient1011&quot;)"></path></g><defs><mask id="SvgjsMask1009"><rect width="1440" height="560" fill="#ffffff"></rect></mask><linearGradient x1="0%" y1="100%" x2="100%" y2="0%" id="SvgjsLinearGradient1010"><stop stop-color="rgba(15, 70, 185, 0.2)" offset="0"></stop><stop stop-opacity="0" stop-color="rgba(15, 70, 185, 0.2)" offset="0.66"></stop></linearGradient><linearGradient x1="100%" y1="100%" x2="0%" y2="0%" id="SvgjsLinearGradient1011"><stop stop-color="rgba(15, 70, 185, 0.2)" offset="0"></stop><stop stop-opacity="0" stop-color="rgba(15, 70, 185, 0.2)" offset="0.66"></stop></linearGradient></defs></svg>