<svg xmlns="http://www.w3.org/2000/svg" version="1.1" xmlns:xlink="http://www.w3.org/1999/xlink" xmlns:svgjs="http://svgjs.dev/svgjs" width="1920" height="1080" preserveAspectRatio="none" viewBox="0 0 1920 1080"><g mask="url(&quot;#SvgjsMask1108&quot;)" fill="none"><rect width="1920" height="1080" x="0" y="0" fill="#0e2a47"></rect><path d="M122 1080L1202 0L1997 0L917 1080z" fill="url(&quot;#SvgjsLinearGradient1109&quot;)"></path><path d="M733.6 1080L1813.6 0L2236.6 0L1156.6 1080z" fill="url(&quot;#SvgjsLinearGradient1109&quot;)"></path><path d="M1804 1080L724 0L608.5 0L1688.5 1080z" fill="url(&quot;#SvgjsLinearGradient1110&quot;)"></path><path d="M1261.4 1080L181.4000000000001 0L-265.5999999999999 0L814.4000000000001 1080z" fill="url(&quot;#SvgjsLinearGradient1110&quot;)"></path><path d="M1316.4645878651284 1080L1920 476.46458786512835L1920 1080z" fill="url(&quot;#SvgjsLinearGradient1109&quot;)"></path><path d="M0 1080L603.5354121348716 1080L 0 476.46458786512835z" fill="url(&quot;#SvgjsLinearGradient1110&quot;)"></path></g><defs><mask id="SvgjsMask1108"><rect width="1920" height="1080" fill="#ffffff"></rect></mask><linearGradient x1="0%" y1="100%" x2="100%" y2="0%" id="SvgjsLinearGradient1109"><stop stop-color="rgba(15, 70, 185, 0.2)" offset="0"></stop><stop stop-opacity="0" stop-color="rgba(15, 70, 185, 0.2)" offset="0.66"></stop></linearGradient><linearGradient x1="100%" y1="100%" x2="0%" y2="0%" id="SvgjsLinearGradient1110"><stop stop-color="rgba(15, 70, 185, 0.2)" offset="0"></stop><stop stop-opacity="0" stop-color="rgba(15, 70, 185, 0.2)" offset="0.66"></stop></linearGradient></defs></svg>